<svg width="1000" height="537" viewBox="0 0 1000 537" fill="none" xmlns="http://www.w3.org/2000/svg">
<path d="M264.081 458.324C254.585 458.337 245.415 454.858 238.319 448.547L42 274.043L249.222 89.8398C256.946 83.2326 266.954 79.9202 277.095 80.615C287.236 81.3098 296.699 85.9563 303.449 93.5553C310.2 101.154 313.699 111.099 313.193 121.25C312.687 131.402 308.218 140.949 300.746 147.84L158.783 274.043L289.843 390.508C295.731 395.733 299.891 402.624 301.77 410.268C303.649 417.912 303.158 425.946 300.363 433.304C297.567 440.663 292.6 446.997 286.12 451.465C279.639 455.934 271.953 458.326 264.081 458.324ZM751.592 448.608L958.813 264.403L762.494 89.8996C754.802 83.0675 744.711 79.5705 734.441 80.1781C724.171 80.7856 714.563 85.4478 707.73 93.139C700.898 100.83 697.401 110.921 698.008 121.19C698.616 131.46 703.278 141.067 710.97 147.899L842.031 264.403L700.068 390.568C692.371 397.4 687.703 407.011 687.092 417.284C686.481 427.557 689.976 437.653 696.809 445.349C703.641 453.045 713.251 457.713 723.525 458.324C733.799 458.935 743.895 455.44 751.592 448.608Z" fill="black"/>
<path d="M238.319 448.547C245.415 454.858 254.585 458.337 264.081 458.324C271.953 458.326 279.639 455.934 286.12 451.465C292.6 446.997 297.567 440.663 300.363 433.304C303.158 425.946 303.649 417.912 301.77 410.268C299.891 402.624 295.731 395.733 289.843 390.508L158.783 274.043L300.746 147.84C308.218 140.949 312.687 131.402 313.193 121.25C313.699 111.099 310.2 101.154 303.449 93.5553C296.699 85.9563 287.236 81.3098 277.095 80.615C266.954 79.9202 256.946 83.2326 249.222 89.8398L42 274.043L238.319 448.547Z" fill="black"/>
<path d="M477.903 515.938L494.235 337.716H381.681C371.936 337.716 365.944 322.594 371.005 310.782L500.18 9.56735C507.197 -6.79201 524.972 2.06896 523.234 21.0615L506.902 199.343H619.462C629.207 199.343 635.199 214.465 630.138 226.277L500.957 527.441C493.94 543.792 476.165 534.923 477.903 515.938Z" fill="black"/>
</svg>
