<svg width="917" height="535" viewBox="0 0 917 535" fill="none" xmlns="http://www.w3.org/2000/svg">
<path d="M222.081 457.324C212.585 457.337 203.415 453.858 196.319 447.547L0 273.043L207.222 88.8398C214.946 82.2326 224.954 78.9202 235.095 79.615C245.236 80.3098 254.699 84.9563 261.449 92.5553C268.2 100.154 271.699 110.099 271.193 120.25C270.687 130.402 266.218 139.949 258.746 146.84L116.783 273.043L247.843 389.508C253.731 394.733 257.891 401.624 259.77 409.268C261.649 416.912 261.158 424.946 258.363 432.304C255.567 439.663 250.6 445.997 244.12 450.465C237.639 454.934 229.953 457.326 222.081 457.324ZM709.592 447.608L916.813 263.403L720.494 88.8996C712.802 82.0675 702.711 78.5705 692.441 79.1781C682.171 79.7856 672.563 84.4478 665.73 92.139C658.898 99.8303 655.401 109.921 656.008 120.19C656.616 130.46 661.278 140.067 668.97 146.899L800.031 263.403L658.068 389.568C650.371 396.4 645.703 406.011 645.092 416.284C644.481 426.557 647.976 436.653 654.809 444.349C661.641 452.045 671.251 456.713 681.525 457.324C691.799 457.935 701.895 454.44 709.592 447.608Z" fill="black"/>
<path d="M196.319 447.547C203.415 453.858 212.585 457.337 222.081 457.324C229.953 457.326 237.639 454.934 244.12 450.465C250.6 445.997 255.567 439.663 258.363 432.304C261.158 424.946 261.649 416.912 259.77 409.268C257.891 401.624 253.731 394.733 247.843 389.508L116.783 273.043L258.746 146.84C266.218 139.949 270.687 130.402 271.193 120.25C271.699 110.099 268.2 100.154 261.449 92.5553C254.699 84.9563 245.236 80.3098 235.095 79.615C224.954 78.9202 214.946 82.2326 207.222 88.8398L0 273.043L196.319 447.547Z" fill="black"/>
<path d="M435.903 514.938L452.235 336.716H339.681C329.936 336.716 323.944 321.594 329.005 309.782L458.18 8.56735C465.197 -7.79201 482.972 1.06896 481.234 20.0615L464.902 198.343H577.462C587.207 198.343 593.199 213.465 588.138 225.277L458.957 526.441C451.94 542.792 434.165 533.923 435.903 514.938Z" fill="black"/>
</svg>
